# xmcd
#
# Track frame offsets:
#	150
#	13808
#	25374
#	45588
#	61194
#	75843
#	89023
#	100273
#	114907
#	133336
#	146835
#	159952
#	173667
#	188336
#	208502
#	226940
#	239718
#	250038
#	265600
#	278329
#
# Disc length: 3867 seconds
#
# Revision: 0
# Processed by: cddbd v1.5.2PL0 Copyright (c) Steve Scherf et al.
# Submitted via: dBpowerAMP V4.0
#
DISCID=fe0f1914
DTITLE=Elvis Presley - From Elvis In Memphis (Disk 2)
DYEAR=2008
DGENRE=Rock and Roll
TTITLE0=Inherit The Wind
TTITLE1=This Is The Story
TTITLE2=Stranger In My Own Home Town
TTITLE3=A Little Bit Of Green
TTITLE4=And The Grass Won't Pay No Mind
TTITLE5=Do You Know Who I Am
TTITLE6=From A Jack To A King
TTITLE7=The Fair's Moving On
TTITLE8=You'll Think Of Me
TTITLE9=Without Love (There Is Nothing)
TTITLE10=In The Ghetto
TTITLE11=Any Day Now
TTITLE12=The Fair's Moving On
TTITLE13=Suspicious Minds
TTITLE14=You'll Think Of Me
TTITLE15=Don't Cry Daddy
TTITLE16=Rubberneckin'
TTITLE17=Kentucky Rain
TTITLE18=My Little Friend
TTITLE19=Mama Like The Roses
EXTD=
EXTT0=
EXTT1=
EXTT2=
EXTT3=
EXTT4=
EXTT5=
EXTT6=
EXTT7=
EXTT8=
EXTT9=
EXTT10=
EXTT11=
EXTT12=
EXTT13=
EXTT14=
EXTT15=
EXTT16=
EXTT17=
EXTT18=
EXTT19=
PLAYORDER=
